<?xml version="1.0" standalone="no"?>
<!DOCTYPE svg PUBLIC "-//W3C//DTD SVG 20010904//EN"
 "http://www.w3.org/TR/2001/REC-SVG-20010904/DTD/svg10.dtd">
<svg version="1.0" xmlns="http://www.w3.org/2000/svg"
 width="700.000000pt" height="700.000000pt" viewBox="0 0 700.000000 700.000000"
 preserveAspectRatio="xMidYMid meet">
<metadata>
Created by potrace 1.11, written by Peter Selinger 2001-2013
</metadata>
<g transform="translate(0.000000,700.000000) scale(0.100000,-0.100000)"
fill="#000000" stroke="none">
<path d="M2190 6983 c-51 -22 -107 -88 -118 -139 -9 -43 -8 -116 3 -209 12
-95 16 -120 31 -172 16 -57 18 -90 6 -95 -14 -5 -128 -160 -183 -248 -98 -159
-184 -368 -227 -555 -42 -182 -46 -244 -46 -700 0 -357 1 -395 19 -449 45
-140 169 -250 318 -282 4 -1 36 -2 71 -3 64 -1 64 -1 71 -33 4 -18 18 -64 32
-103 119 -322 347 -593 689 -818 40 -26 76 -47 82 -47 6 0 12 -3 14 -8 4 -9
213 -113 293 -145 60 -24 172 -62 210 -70 11 -3 -158 -5 -375 -6 -570 -3 -626
-7 -817 -66 -227 -69 -416 -181 -586 -348 -77 -76 -173 -192 -201 -242 -9 -16
-28 -48 -41 -70 -85 -139 -146 -319 -181 -535 -11 -69 -12 -1449 0 -1494 13
-53 79 -121 132 -135 30 -8 630 -10 2140 -9 l2099 3 36 24 c43 29 76 76 89
122 5 19 8 353 6 759 -3 706 -3 728 -25 829 -136 636 -643 1093 -1281 1155
-30 3 -246 6 -480 6 l-425 0 95 33 c123 43 141 50 290 124 457 225 778 565
915 970 l33 98 79 6 c89 7 144 25 206 68 93 64 156 160 177 270 11 61 11 727
0 846 -24 247 -82 451 -191 666 -94 189 -197 329 -358 489 -282 280 -622 449
-1031 513 -143 23 -1518 23 -1570 0z"/>
</g>
</svg>
